# xmcd
#
# Track frame offsets:
#	187
#	12980
#	24567
#	35777
#	44222
#	51497
#	83010
#	99280
#	108335
#	119092
#	131702
#	142775
#	155297
#
# Disc length: 2208 seconds
#
# Revision: 1
# Processed by: cddbd v1.5.1PL0 Copyright (c) Steve Scherf et al.
# Submitted via: CDex 1.50Beta5
#
DISCID=b1089e0d
DTITLE=ボニー・ジャックス - 胸に響くサトウハチロー作品集
DYEAR=1998
DGENRE=
TTITLE0=ちいさい秋みつけた
TTITLE1=秋の子
TTITLE2=ああプランタン無理もない
TTITLE3=プンプン ポルカ
TTITLE4=わらいかわせみに話すなよ
TTITLE5=スカンク・カンク・プー
TTITLE6=爪色の雨
TTITLE7=夕方のおかあさん
TTITLE8=お月さんと坊や
TTITLE9=母さんの蛇の目はむらさき
TTITLE10=もずが枯木で
TTITLE11=悲しくてやりきれない
TTITLE12=心変わり
EXTD=
EXTT0=
EXTT1=
EXTT2=
EXTT3=
EXTT4=
EXTT5=
EXTT6=
EXTT7=
EXTT8=
EXTT9=
EXTT10=
EXTT11=
EXTT12=
PLAYORDER=
